<?xml version="1.0" encoding="UTF-8" standalone="no"?>
<svg
   xmlns:dc="http://purl.org/dc/elements/1.1/"
   xmlns:cc="http://creativecommons.org/ns#"
   xmlns:rdf="http://www.w3.org/1999/02/22-rdf-syntax-ns#"
   xmlns:svg="http://www.w3.org/2000/svg"
   xmlns="http://www.w3.org/2000/svg"
   xmlns:sodipodi="http://sodipodi.sourceforge.net/DTD/sodipodi-0.dtd"
   xmlns:inkscape="http://www.inkscape.org/namespaces/inkscape"
   version="1.1"
   x="0px"
   y="0px"
   width="330"
   height="330"
   viewBox="0, 0, 330, 330"
   id="svg2985"
   inkscape:version="0.48.4 r9943 custom"
   sodipodi:docname="LogoR.svg">
  <sodipodi:namedview
     pagecolor="#ffffff"
     bordercolor="#666666"
     borderopacity="1"
     objecttolerance="10"
     gridtolerance="10"
     guidetolerance="10"
     inkscape:pageopacity="0"
     inkscape:pageshadow="2"
     inkscape:window-width="1034"
     inkscape:window-height="613"
     id="namedview2994"
     showgrid="false"
     inkscape:zoom="1"
     inkscape:cx="99.173729"
     inkscape:cy="165"
     inkscape:window-x="47"
     inkscape:window-y="73"
     inkscape:window-maximized="0"
     inkscape:current-layer="Layer" />
  <metadata
     id="metadata2996">
    <rdf:RDF>
      <cc:Work
         rdf:about="">
        <dc:format>image/svg+xml</dc:format>
        <dc:type
           rdf:resource="http://purl.org/dc/dcmitype/StillImage" />
      </cc:Work>
    </rdf:RDF>
  </metadata>
  <g
     id="Layer">
    <path
       fill="#f7000d"
       id="path2988"
       d="M97.684,70.879 C97.939,69.925 98.547,69.068 99.364,68.513 C104.117,65.277 109.11,62.392 114.288,59.891 C115.178,59.461 116.223,59.363 117.178,59.619 L127.762,62.455 C128.552,62.667 129.405,62.641 130.18,62.377 C134.653,60.857 139.228,59.631 143.863,58.709 C144.665,58.549 145.418,58.147 145.996,57.569 L153.743,49.817 C154.441,49.119 155.395,48.682 156.381,48.609 C162.116,48.184 167.883,48.184 173.618,48.609 C174.603,48.682 175.556,49.119 176.256,49.817 L184.003,57.569 C184.581,58.147 185.333,58.549 186.136,58.709 C190.769,59.631 195.344,60.857 199.819,62.377 C200.594,62.641 201.446,62.667 202.238,62.455 L213.042,59.559 C213.744,59.371 214.394,58.996 214.909,58.481 L234.992,38.392 C236.835,36.546 236.277,32.941 233.961,31.742 C203.764,16.103 168.161,11.168 134.852,18.005 C101.542,24.841 70.759,43.402 49.158,69.672 C27.557,95.941 15.288,129.739 15.005,163.754 C14.723,197.768 26.428,231.764 47.591,258.389 C48.368,259.368 49.605,259.965 50.853,259.963 L95.452,259.963 C96.542,259.963 97.627,259.515 98.399,258.743 L247.479,109.605 C248.249,108.833 249.334,108.384 250.425,108.384 L264.535,108.384 C266.044,108.384 267.519,109.275 268.222,110.61 C268.857,111.819 269.474,113.04 270.067,114.27 C270.497,115.16 270.595,116.206 270.341,117.161 L267.504,127.748 C267.292,128.539 267.321,129.391 267.584,130.166 C269.102,134.643 270.327,139.219 271.25,143.856 C271.409,144.658 271.812,145.412 272.391,145.99 L280.137,153.74 C280.835,154.439 281.274,155.394 281.347,156.379 C281.772,162.116 281.772,167.885 281.347,173.622 C281.274,174.608 280.835,175.563 280.137,176.262 L272.391,184.011 C271.812,184.59 271.409,185.342 271.25,186.145 C270.327,190.781 269.102,195.357 267.584,199.834 C267.321,200.609 267.292,201.461 267.504,202.253 L270.341,212.841 C270.595,213.796 270.497,214.841 270.067,215.732 C267.567,220.912 264.685,225.907 261.45,230.662 C260.894,231.479 260.037,232.088 259.084,232.345 L248.5,235.181 C247.71,235.392 246.985,235.842 246.447,236.458 C243.33,240.012 239.982,243.362 236.429,246.48 C235.814,247.018 235.364,247.744 235.152,248.534 L232.317,259.121 C232.061,260.075 231.452,260.932 230.636,261.489 C225.881,264.723 220.889,267.608 215.711,270.109 C214.821,270.539 213.774,270.637 212.821,270.382 L202.238,267.544 C201.446,267.333 200.594,267.359 199.819,267.624 C195.344,269.143 190.769,270.369 186.136,271.293 C185.333,271.451 184.581,271.854 184.003,272.433 L176.256,280.182 C175.558,280.881 174.603,281.32 173.618,281.393 C167.883,281.818 162.116,281.818 156.381,281.393 C155.395,281.32 154.441,280.881 153.743,280.182 L145.996,272.433 C145.418,271.854 144.665,271.451 143.863,271.293 C139.228,270.369 134.653,269.143 130.18,267.624 C129.405,267.359 128.552,267.333 127.762,267.544 L116.957,270.44 C116.253,270.629 115.603,271.004 115.09,271.519 L95.007,291.608 C93.162,293.456 93.72,297.059 96.039,298.258 C126.235,313.898 161.836,318.832 195.146,311.996 C228.456,305.16 259.24,286.6 280.842,260.33 C302.443,234.06 314.712,200.262 314.995,166.248 C315.277,132.232 303.57,98.236 282.409,71.611 C281.63,70.632 280.395,70.037 279.147,70.037 L234.547,70.037 C233.456,70.037 232.371,70.485 231.601,71.257 L82.521,220.393 C81.749,221.165 80.666,221.615 79.574,221.615 L65.464,221.615 C63.956,221.615 62.479,220.725 61.778,219.39 C61.141,218.181 60.524,216.96 59.931,215.73 C59.501,214.84 59.403,213.794 59.66,212.839 L62.494,202.252 C62.706,201.461 62.679,200.608 62.416,199.832 C60.896,195.357 59.671,190.781 58.749,186.144 C58.59,185.342 58.188,184.59 57.609,184.01 L49.861,176.26 C49.163,175.561 48.726,174.608 48.653,173.621 C48.228,167.883 48.228,162.116 48.653,156.379 C48.726,155.394 49.163,154.439 49.861,153.74 L57.609,145.989 C58.188,145.41 58.59,144.658 58.749,143.854 C59.671,139.218 60.896,134.643 62.416,130.166 C62.679,129.391 62.706,128.537 62.494,127.747 L59.66,117.159 C59.403,116.206 59.503,115.16 59.931,114.27 C62.431,109.09 65.314,104.093 68.549,99.338 C69.104,98.521 69.961,97.912 70.916,97.657 L81.497,94.819 C82.287,94.608 83.012,94.157 83.552,93.542 C86.667,89.988 90.017,86.638 93.57,83.52 C94.185,82.982 94.635,82.256 94.847,81.466 L97.684,70.879 z"
       style="fill:#e2001b;fill-opacity:1" />
    <path
       fill="#7a0008"
       id="path2990"
       d="M162.053,55.947 L114.914,103.105 C113.372,104.649 113.372,107.457 114.914,109.001 L144.377,138.473 C145.92,140.017 148.727,140.017 150.268,138.473 L156.162,132.579 C157.712,131.069 160.487,131.086 162.017,132.616 C163.547,134.148 163.565,136.924 162.053,138.473 L138.484,162.052 C136.934,163.559 134.164,163.538 132.635,162.009 C131.107,160.48 131.087,157.709 132.592,156.158 L138.484,150.264 C140.027,148.721 140.027,145.913 138.484,144.369 L109.021,114.894 C107.479,113.352 104.672,113.352 103.129,114.894 L55.99,162.052 C54.446,163.596 54.446,166.406 55.99,167.948 L85.451,197.421 C86.994,198.964 89.802,198.964 91.344,197.421 C92.887,195.878 95.694,195.878 97.236,197.421 L132.592,232.79 C134.135,234.334 134.135,237.142 132.592,238.684 C131.049,240.228 131.049,243.038 132.592,244.58 L162.053,274.053 C163.597,275.597 166.405,275.597 167.947,274.053 L215.086,226.895 C216.629,225.353 216.629,222.545 215.086,221.001 L185.623,191.527 C184.081,189.984 181.275,189.984 179.731,191.527 L173.838,197.421 C172.287,198.921 169.523,198.896 167.998,197.371 C166.472,195.843 166.448,193.079 167.947,191.527 L191.516,167.948 C193.068,166.449 195.831,166.472 197.358,167.999 C198.883,169.525 198.906,172.289 197.408,173.842 L191.516,179.737 C189.975,181.281 189.975,184.089 191.516,185.631 L220.979,215.105 C222.523,216.649 225.329,216.649 226.871,215.105 L274.01,167.948 C275.554,166.406 275.554,163.596 274.01,162.052 L244.549,132.579 C243.007,131.036 240.199,131.036 238.656,132.579 C237.114,134.122 234.308,134.122 232.764,132.579 L197.408,97.209 C195.866,95.667 195.866,92.859 197.408,91.316 C198.951,89.772 198.951,86.964 197.408,85.42 L167.947,55.947 C166.405,54.403 163.597,54.403 162.053,55.947 z"
       style="fill:#860009;fill-opacity:1" />
  </g>
  <defs
     id="defs2992" />
</svg>
